<svg width="167" height="20" viewBox="0 0 167 20" fill="none" xmlns="http://www.w3.org/2000/svg">
<path d="M22.9961 19.6453V0.466797H26.5668V19.6453H22.9961Z" fill="black"/>
<path d="M32.2739 10C32.2739 13.7073 34.3341 16.9873 38.3177 16.9873C41.2037 16.9873 43.2639 15.3424 43.4048 12.1912H38.3177V9.17853H46.8347V19.5902H44.0955L43.8216 17.6722C42.722 19.038 40.9356 20 38.1886 20C32.4186 20 28.7109 15.7541 28.7109 10C28.7109 4.24585 32.4284 0 38.3255 0C42.7767 0 45.3868 2.27317 46.5686 5.34244H42.632C41.9452 4.02732 40.6265 3.01268 38.3275 3.01268C34.342 3.01268 32.2739 6.29268 32.2739 10Z" fill="black"/>
<path d="M66.1775 19.5907H62.6067V11.2336H53.2661V19.5907H49.6934V0.410156H53.2661V8.21503H62.6067V0.410156H66.1775V19.5907Z" fill="black"/>
<path d="M84.2629 3.42479H77.9432V19.5907H74.3725V3.42479H68.0527V0.410156H84.2629V3.42479Z" fill="black"/>
<path d="M113.314 20C107.546 20 103.699 15.7541 103.699 10C103.699 4.24585 107.546 0 113.314 0C119.082 0 122.93 4.24585 122.93 10C122.93 15.7541 119.084 20 113.314 20ZM113.314 16.9873C117.16 16.9873 119.36 13.6995 119.36 10C119.36 6.30049 117.16 3.01268 113.314 3.01268C109.467 3.01268 107.27 6.29268 107.27 10C107.27 13.7073 109.467 16.9873 113.314 16.9873Z" fill="black"/>
<path d="M125.289 19.5907V0.410156H128.86V19.5907H125.289Z" fill="black"/>
<path d="M145.111 0.410156H148.682V19.5907H144.837L139.067 11.2336C136.98 8.21894 136.099 6.7126 135.412 5.47943H135.303C135.44 7.26089 135.498 8.49405 135.498 11.5067V19.5907H131.928V0.410156H135.774L141.544 8.76723C143.632 11.7819 144.51 13.2882 145.197 14.5214H145.307C145.17 12.7399 145.111 11.5067 145.111 8.49406V0.410156Z" fill="black"/>
<path d="M166.685 3.42479H160.365V19.5907H156.794V3.42479H150.475V0.410156H166.685V3.42479Z" fill="black"/>
<path d="M20.777 19.7088L14.5747 13.5254C15.8732 13.3366 17.0929 12.7899 18.0965 11.9469C19.4329 10.7761 20.1412 9.09808 20.1412 7.09613C20.1412 5.09418 19.4329 3.42003 18.0965 2.24734C16.815 1.12344 15.0012 0.530273 12.8549 0.530273H0.996094V19.7088H4.56879L4.47879 8.03272L16.0969 19.7069H20.777V19.7088ZM12.8588 3.54296C16.3806 3.54296 17.1261 5.47661 17.1261 7.09807C17.1261 8.71954 16.3924 10.6512 12.8647 10.6512H11.6907L4.56292 3.5449H12.8588V3.54296Z" fill="black"/>
<path d="M100.298 2.13308C99.0149 1.00528 97.1972 0.410156 95.043 0.410156H86.1367V19.6433H89.7192V13.5945H95.043C97.1953 13.5945 99.0149 12.9994 100.298 11.8736C101.641 10.7028 102.349 9.01698 102.349 7.00918C102.349 5.00137 101.641 3.30771 100.298 2.13308ZM95.043 10.5624H89.7192V3.43259H95.043C98.5805 3.43259 99.3221 5.3721 99.3221 6.99942C99.3221 8.62674 98.5805 10.5624 95.043 10.5624Z" fill="black"/>
</svg>
